#!OML:ASF E:\CV Data\Top Level 1\Subject 1\Session 1\player.ASF
:FULLY-SPECIFIED
:DEGREES
516
root 3.76001 17.0247 -6.67768 5.58849 -39.2641 -6.11889
lowerback 4.09579 0.350505 3.61488
upperback -1.64248 0.761337 2.79613
thorax -3.98851 0.315167 0.804884
lowerneck -15.5458 1.73695 -5.59665
upperneck 20.4927 0.612673 13.5901
head 8.89048 1.27238 5.71561
rclavicle 2.61961e-014 8.74653e-015
rhumerus 49.3281 36.9795 -39.1056
rradius 70.7666
rwrist -5.44834
rhand -32.6781 11.4327
rfingers 7.12502
rthumb -5.90343 -18.465
lclavicle 2.61961e-014 8.74653e-015
lhumerus 12.255 -26.8476 84.282
lradius 77.2839
lwrist 16.6838
lhand -42.1655 19.4632
lfingers 7.12502
lthumb -15.0546 48.8958
rfemur -9.50183 -0.833743 25.9254
rtibia 37.8954
rfoot -31.1915 -1.27991
rtoes 1.58614
lfemur -31.4417 18.5633 -19.1559
ltibia 52.951
lfoot -18.5697 10.3697
ltoes -5.54245
517
root 3.76441 17.033 -6.67605 5.48362 -39.1566 -6.21689
lowerback 4.21278 0.266167 3.75338
upperback -1.5854 0.66442 2.92305
thorax -3.99717 0.264835 0.865515
lowerneck -15.4473 1.75552 -5.5935
upperneck 20.6395 0.641077 13.4954
head 8.9188 1.27467 5.68864
rclavicle 2.04096e-014 9.54166e-015
rhumerus 50.3311 35.4669 -37.5169
rradius 71.2864
rwrist -6.21487
rhand -32.6828 11.1896
rfingers 7.12502
rthumb -5.90793 -18.708
lclavicle 2.04096e-014 9.54166e-015
lhumerus 13.7868 -26.4106 82.9811
lradius 76.0157
lwrist 15.8241
lhand -41.9359 18.8932
lfingers 7.12502
lthumb -14.8334 48.3423
rfemur -9.17141 -0.882735 26.0059
rtibia 37.5973
rfoot -31.1913 -1.52958
rtoes 0.860889
lfemur -31.9858 19.1026 -19.3287
ltibia 52.8057
lfoot -18.7229 10.2664
ltoes -6.02985
518
root 3.76882 17.0428 -6.67169 5.38333 -39.0583 -6.28275
lowerback 4.31375 0.178348 3.88548
upperback -1.53894 0.561912 3.03795
thorax -4.00778 0.211678 0.918143
lowerneck -15.349 1.78774 -5.58991
upperneck 20.7938 0.688818 13.3974
head 8.94755 1.28578 5.66287
rclavicle -3.5087e-014 1.86858e-014
rhumerus 51.2467 33.9422 -36.0084
rradius 71.7792
rwrist -6.98155
rhand -32.7021 10.9309
rfingers 7.12502
rthumb -5.9266 -18.9662
lclavicle -3.5087e-014 1.86858e-014
lhumerus 15.2812 -25.9675 81.6107
lradius 74.6473
lwrist 14.9325
lhand -41.6689 18.3962
lfingers 7.12502
lthumb -14.5761 47.8641
rfemur -8.85277 -0.911574 26.0535
rtibia 37.2809
rfoot -31.1689 -1.76414
rtoes 0.196892
lfemur -32.5249 19.6049 -19.5347
ltibia 52.5068
lfoot -18.8444 10.1613
ltoes -6.52134
519
root 3.7734 17.0537 -6.66457 5.29044 -38.9677 -6.32063
lowerback 4.38763 0.0865395 4.02777
upperback -1.49653 0.452746 3.13202
thorax -4.00709 0.154868 0.944329
lowerneck -15.2717 1.83615 -5.5494
upperneck 20.9572 0.754797 13.2777
head 8.9821 1.30678 5.62596
rclavicle -4.83854e-014 -2.62396e-014
rhumerus 52.0864 32.3968 -34.5855
rradius 72.2388
rwrist -7.73095
rhand -32.691 10.6455
rfingers 7.12502
rthumb -5.91593 -19.2519
lclavicle -4.83854e-014 -2.62396e-014
lhumerus 16.7431 -25.517 80.1605
lradius 73.1865
lwrist 14.0057
lhand -41.3768 17.9676
lfingers 7.12502
lthumb -14.2948 47.4556
rfemur -8.54832 -0.925936 26.0715
rtibia 36.9507
rfoot -31.1244 -1.97268
rtoes -0.381418
lfemur -33.0596 20.0607 -19.7639
ltibia 52.0657
lfoot -18.9156 10.0585
ltoes -7.00032
520
root 3.77832 17.0653 -6.6551 5.20355 -38.881 -6.33364
lowerback 4.44725 -0.0113132 4.16342
upperback -1.46314 0.334676 3.22234
thorax -4.00799 0.0937007 0.971308
lowerneck -15.2044 1.8976 -5.5017
upperneck 21.1358 0.840587 13.1406
head 9.02196 1.33624 5.58476
rclavicle -8.47226e-014 3.69739e-014
rhumerus 52.8692 30.8435 -33.1963
rradius 72.6744
rwrist -8.4781
rhand -32.675 10.3619
rfingers 7.12502
rthumb -5.90049 -19.5359
lclavicle -8.47226e-014 3.69739e-014
lhumerus 18.156 -25.053 78.6539
lradius 71.6456
lwrist 13.053
lhand -41.0713 17.5519
lfingers 7.12502
lthumb -14.0003 47.0604
rfemur -8.25744 -0.929656 26.0646
rtibia 36.6092
rfoot -31.0557 -2.16219
rtoes -0.870672
lfemur -33.5846 20.4537 -20.0041
ltibia 51.4948
lfoot -18.9258 9.96042
ltoes -7.45777
521
root 3.78351 17.0776 -6.64329 5.12363 -38.8034 -6.32655
lowerback 4.51004 -0.108719 4.26804
upperback -1.44695 0.217021 3.3274
thorax -4.02885 0.0332825 1.03126
lowerneck -15.1486 1.96614 -5.45975
upperneck 21.3369 0.942062 12.9806
head 9.07033 1.37066 5.53955
rclavicle 5.50758e-014 -7.95139e-016
rhumerus 53.5947 29.2926 -31.8194
rradius 73.085
rwrist -9.21386
rhand -32.6383 10.0819
rfingers 7.12502
rthumb -5.86503 -19.8169
lclavicle 5.50758e-014 -7.95139e-016
lhumerus 19.5021 -24.5715 77.1333
lradius 70.0319
lwrist 12.0849
lhand -40.7431 17.1211
lfingers 7.12502
lthumb -13.6841 46.6512
rfemur -7.9782 -0.920351 26.0367
rtibia 36.2595
rfoot -30.9593 -2.33089
rtoes -1.23472
lfemur -34.0957 20.7751 -20.24
ltibia 50.8093
lfoot -18.8799 9.86728
ltoes -7.86954
522
root 3.78864 17.0903 -6.62944 5.05022 -38.7482 -6.30729
lowerback 4.57734 -0.198806 4.34815
upperback -1.43975 0.108839 3.44076
thorax -4.06149 -0.0219592 1.11316
lowerneck -15.0952 2.03751 -5.41427
upperneck 21.5358 1.0524 12.8005
head 9.118 1.40729 5.48747
rclavicle -5.31159e-014 2.3059e-014
rhumerus 54.2629 27.7274 -30.4493
rradius 73.4722
rwrist -9.94817
rhand -32.5696 9.8178
rfingers 7.12502
rthumb -5.79873 -20.0829
lclavicle -5.31159e-014 2.3059e-014
lhumerus 20.7954 -24.0851 75.5839
lradius 68.3572
lwrist 11.1176
lhand -40.4177 16.7029
lfingers 7.12502
lthumb -13.3704 46.2539
rfemur -7.70596 -0.886001 25.9953
rtibia 35.9039
rfoot -30.8341 -2.48693
rtoes -1.50719
lfemur -34.5828 21.0331 -20.456
ltibia 50.0248
lfoot -18.7762 9.79706
ltoes -8.32181
523
root 3.79368 17.1032 -6.61345 4.98057 -38.7164 -6.2766
lowerback 4.64659 -0.279519 4.40871
upperback -1.43611 0.012541 3.55707
thorax -4.09861 -0.0708604 1.20846
lowerneck -15.0353 2.10792 -5.37618
upperneck 21.7182 1.16478 12.6225
head 9.15888 1.44399 5.43666
rclavicle -1.43467e-014 9.54166e-015
rhumerus 54.8688 26.137 -29.0811
rradius 73.8439
rwrist -10.6877
rhand -32.5094 9.56936
rfingers 7.12502
rthumb -5.74054 -20.3329
lclavicle -1.43467e-014 9.54166e-015
lhumerus 22.0521 -23.6173 73.9786
lradius 66.646
lwrist 10.1927
lhand -40.0888 16.2992
lfingers 7.12502
lthumb -13.0533 45.8707
rfemur -7.43824 -0.827137 25.9408
rtibia 35.5442
rfoot -30.6767 -2.62606
rtoes -1.68037
lfemur -35.0377 21.2147 -20.6411
ltibia 49.1571
lfoot -18.6336 9.75227
ltoes -8.77323
524
root 3.79848 17.1163 -6.59538 4.91131 -38.7075 -6.2335
lowerback 4.7172 -0.345647 4.45563
upperback -1.42826 -0.0653581 3.66505
thorax -4.13167 -0.110258 1.30144
lowerneck -14.9719 2.17075 -5.33705
upperneck 21.8693 1.26655 12.4568
head 9.18982 1.47658 5.38724
rclavicle 4.43973e-014 2.70347e-014
rhumerus 55.3961 24.5025 -27.7373
rradius 74.1942
rwrist -11.4167
rhand -32.4478 9.33447
rfingers 7.12502
rthumb -5.68105 -20.5694
lclavicle 4.43973e-014 2.70347e-014
lhumerus 23.2826 -23.1615 72.3346
lradius 64.8938
lwrist 9.26297
lhand -39.75 15.8711
lfingers 7.12502
lthumb -12.7267 45.4632
rfemur -7.17361 -0.745 25.8728
rtibia 35.1827
rfoot -30.4879 -2.74899
rtoes -1.75213
lfemur -35.4553 21.3121 -20.7875
ltibia 48.2211
lfoot -18.4755 9.73255
ltoes -9.17012
525
root 3.80311 17.1294 -6.57503 4.84301 -38.7134 -6.17721
lowerback 4.7799 -0.400589 4.5039
upperback -1.41383 -0.129637 3.75332
thorax -4.15309 -0.142901 1.37209
lowerneck -14.9019 2.22703 -5.28424
upperneck 21.982 1.35427 12.311
head 9.20811 1.50526 5.33893
rclavicle 6.04119e-014 -7.95139e-015
rhumerus 55.8372 22.8212 -26.4334
rradius 74.5229
rwrist -12.1246
rhand -32.399 9.10452
rfingers 7.12502
rthumb -5.63397 -20.8006
lclavicle 6.04119e-014 -7.95139e-015
lhumerus 24.4851 -22.7143 70.6489
lradius 63.1123
lwrist 8.34064
lhand -39.3985 15.4316
lfingers 7.12502
lthumb -12.3879 45.0445
rfemur -6.9158 -0.644158 25.7909
rtibia 34.8235
rfoot -30.2702 -2.86149
rtoes -1.7346
lfemur -35.8374 21.3136 -20.8919
ltibia 47.2322
lfoot -18.3179 9.74574
ltoes -9.57605
526
root 3.8074 17.1424 -6.55278 4.77186 -38.7401 -6.10932
lowerback 4.84443 -0.448718 4.5379
upperback -1.39519 -0.185939 3.83453
thorax -4.17091 -0.171195 1.44283
lowerneck -14.8148 2.2823 -5.24666
upperneck 22.0673 1.43981 12.1933
head 9.21362 1.53393 5.30113
rclavicle -4.00955e-014 -1.19271e-014
rhumerus 56.214 21.1167 -25.1564
rradius 74.8303
rwrist -12.8009
rhand -32.3528 8.86383
rfingers 7.12502
rthumb -5.58941 -21.0424
lclavicle -4.00955e-014 -1.19271e-014
lhumerus 25.6373 -22.2525 68.9507
lradius 61.3045
lwrist 7.36125
lhand -39.0083 15.0317
lfingers 7.12502
lthumb -12.0117 44.667
rfemur -6.66238 -0.511495 25.6986
rtibia 34.4711
rfoot -30.0193 -2.96524
rtoes -1.57957
lfemur -36.178 21.2216 -20.9443
ltibia 46.2045
lfoot -18.174 9.79047
ltoes -9.9469
527
root 3.81127 17.1548 -6.52891 4.69777 -38.7826 -6.0327
lowerback 4.9134 -0.49563 4.55779
upperback -1.37195 -0.241536 3.91035
thorax -4.18625 -0.198749 1.51588
lowerneck -14.7325 2.34245 -5.19691
upperneck 22.141 1.5296 12.0787
head 9.21599 1.56599 5.26239
rclavicle -2.62706e-014 4.77083e-015
rhumerus 56.5386 19.3977 -23.9141
rradius 75.1086
rwrist -13.428
rhand -32.3108 8.61697
rfingers 7.12502
rthumb -5.54883 -21.2904
lclavicle -2.62706e-014 4.77083e-015
lhumerus 26.7382 -21.7742 67.2191
lradius 59.4912
lwrist 6.37183
lhand -38.572 14.6375
lfingers 7.12502
lthumb -11.5909 44.297
rfemur -6.41411 -0.343877 25.601
rtibia 34.1307
rfoot -29.7431 -3.07091
rtoes -1.30294
lfemur -36.4778 21.0415 -20.941
ltibia 45.1525
lfoot -18.0522 9.85962
ltoes -10.3169
528
root 3.81481 17.1661 -6.50389 4.62442 -38.8267 -5.95131
lowerback 4.98942 -0.546105 4.56686
upperback -1.34613 -0.302219 3.98383
thorax -4.20274 -0.228559 1.59317
lowerneck -14.6538 2.40777 -5.14222
upperneck 22.2006 1.62572 11.969
head 9.21376 1.60195 5.2246
rclavicle -2.05245e-014 8.74653e-015
rhumerus 56.8087 17.6671 -22.7002
rradius 75.3632
rwrist -14.0072
rhand -32.2611 8.37202
rfingers 7.12502
rthumb -5.50079 -21.5366
lclavicle -2.05245e-014 8.74653e-015
lhumerus 27.7708 -21.27 65.4852
lradius 57.6751
lwrist 5.34869
lhand -38.0925 14.2672
lfingers 7.12502
lthumb -11.1285 43.9521
rfemur -6.17555 -0.142936 25.5059
rtibia 33.8067
rfoot -29.4502 -3.18971
rtoes -0.914842
lfemur -36.7468 20.7773 -20.882
ltibia 44.0886
lfoot -17.9583 9.93821
ltoes -10.6638
529
root 3.81793 17.1764 -6.47798 4.54577 -38.8672 -5.86165
lowerback 5.07541 -0.599631 4.56254
upperback -1.31347 -0.36762 4.05108
thorax -4.21751 -0.260334 1.67205
lowerneck -14.5869 2.47618 -5.07545
upperneck 22.2475 1.72424 11.8612
head 9.20959 1.6405 5.18544
rclavicle 4.91371e-015 -7.15625e-015
rhumerus 57.0173 15.9158 -21.5213
rradius 75.5929
rwrist -14.5347
rhand -32.1809 8.13739
rfingers 7.12502
rthumb -5.42335 -21.7732
lclavicle 4.91371e-015 -7.15625e-015
lhumerus 28.7477 -20.7508 63.7335
lradius 55.8662
lwrist 4.32119
lhand -37.5599 13.9076
lfingers 7.12502
lthumb -10.6148 43.6195
rfemur -5.94184 0.0893214 25.4119
rtibia 33.5005
rfoot -29.1552 -3.3281
rtoes -0.462188
lfemur -36.9906 20.4456 -20.7751
ltibia 43.0253
lfoot -17.889 10.0151
ltoes -10.9838
530
root 3.82061 17.1859 -6.4511 4.46221 -38.8966 -5.76617
lowerback 5.14937 -0.665349 4.55381
upperback -1.26263 -0.451739 4.11337
thorax -4.20635 -0.300914 1.7495
lowerneck -14.525 2.55615 -4.99886
upperneck 22.2664 1.84021 11.7497
head 9.1954 1.68767 5.14391
rclavicle 7.71533e-015 5.56597e-015
rhumerus 57.1884 14.1378 -20.3836
rradius 75.798
rwrist -15.0199
rhand -32.041 7.92072
rfingers 7.12502
rthumb -5.28832 -21.9933
lclavicle 7.71533e-015 5.56597e-015
lhumerus 29.6638 -20.1955 61.9676
lradius 54.0646
lwrist 3.31233
lhand -36.9994 13.5944
lfingers 7.12502
lthumb -10.0741 43.3333
rfemur -5.70962 0.343289 25.3207
rtibia 33.2106
rfoot -28.8753 -3.49472
rtoes -0.0294178
lfemur -37.2165 20.0626 -20.6271
ltibia 41.9739
lfoot -17.8378 10.0748
ltoes -11.2754
